%TF.GenerationSoftware,KiCad,Pcbnew,(6.0.5-0)*%
%TF.CreationDate,2025-01-13T14:58:44-05:00*%
%TF.ProjectId,PowerMeter,506f7765-724d-4657-9465-722e6b696361,rev?*%
%TF.SameCoordinates,Original*%
%TF.FileFunction,Legend,Bot*%
%TF.FilePolarity,Positive*%
%FSLAX46Y46*%
G04 Gerber Fmt 4.6, Leading zero omitted, Abs format (unit mm)*
G04 Created by KiCad (PMU (6.0.5-0)) date 2025-01-13 14:58:44*
%MOMM*%
%LPD*%
G01*
G04 APERTURE LIST*
%ADD10C,0.150000*%
%ADD11C,0.152400*%
%ADD12C,0.203200*%
G04 APERTURE END LIST*
D10*
%TO.C,U1*%
X109143188Y-31171458D02*
X109143188Y-31982346D01*
X109095489Y-32077744D01*
X109047790Y-32125443D01*
X108952391Y-32173143D01*
X108761594Y-32173143D01*
X108666195Y-32125443D01*
X108618496Y-32077744D01*
X108570797Y-31982346D01*
X108570797Y-31171458D01*
X107569112Y-32173143D02*
X108141503Y-32173143D01*
X107855307Y-32173143D02*
X107855307Y-31171458D01*
X107950706Y-31314556D01*
X108046105Y-31409954D01*
X108141503Y-31457653D01*
D11*
X113460000Y-32840000D02*
X110920000Y-32840000D01*
X103300000Y-43000000D02*
X103300000Y-32840000D01*
X110920000Y-32840000D02*
X110920000Y-43000000D01*
D12*
X105840000Y-32840000D02*
X107364000Y-32840000D01*
D11*
X103300000Y-32840000D02*
X105840000Y-32840000D01*
X103300000Y-43000000D02*
X105840000Y-43000000D01*
X110920000Y-43000000D02*
X113460000Y-43000000D01*
X105840000Y-32840000D02*
X105840000Y-43000000D01*
X105840000Y-43000000D02*
X110920000Y-43000000D01*
X110920000Y-32840000D02*
X109396000Y-32840000D01*
X113460000Y-32840000D02*
X113460000Y-43000000D01*
X107364000Y-32840000D02*
G75*
G03*
X109396000Y-32840000I1016000J0D01*
G01*
%TD*%
M02*
