%TF.GenerationSoftware,KiCad,Pcbnew,(6.0.5-0)*%
%TF.CreationDate,2025-01-13T14:58:44-05:00*%
%TF.ProjectId,PowerMeter,506f7765-724d-4657-9465-722e6b696361,rev?*%
%TF.SameCoordinates,Original*%
%TF.FileFunction,Copper,L1,Top*%
%TF.FilePolarity,Positive*%
%FSLAX46Y46*%
G04 Gerber Fmt 4.6, Leading zero omitted, Abs format (unit mm)*
G04 Created by KiCad (PMU (6.0.5-0)) date 2025-01-13 14:58:44*
%MOMM*%
%LPD*%
G01*
G04 APERTURE LIST*
%TA.AperFunction,ComponentPad*%
%ADD10C,1.400000*%
%TD*%
%TA.AperFunction,ComponentPad*%
%ADD11O,1.400000X1.400000*%
%TD*%
%TA.AperFunction,ComponentPad*%
%ADD12R,1.605000X1.605000*%
%TD*%
%TA.AperFunction,ComponentPad*%
%ADD13C,1.605000*%
%TD*%
%TA.AperFunction,ComponentPad*%
%ADD14C,1.600000*%
%TD*%
%TA.AperFunction,ComponentPad*%
%ADD15C,1.600200*%
%TD*%
%TA.AperFunction,Conductor*%
%ADD16C,1.000000*%
%TD*%
G04 APERTURE END LIST*
D10*
%TO.P,R2,1*%
%TO.N,Net-(C2-Pad2)*%
X100000000Y-46790000D03*
D11*
%TO.P,R2,2*%
%TO.N,SIG*%
X100000000Y-41710000D03*
%TD*%
D10*
%TO.P,R1,1*%
%TO.N,Net-(C2-Pad1)*%
X110890000Y-44730000D03*
D11*
%TO.P,R1,2*%
%TO.N,Net-(C2-Pad2)*%
X105810000Y-44730000D03*
%TD*%
D12*
%TO.P,J1,1,Pin_1*%
%TO.N,SIG*%
X105850000Y-28915000D03*
D13*
%TO.P,J1,2,Pin_2*%
%TO.N,GND*%
X108390000Y-28915000D03*
%TO.P,J1,3,Pin_3*%
%TO.N,VCC-5V*%
X110930000Y-28915000D03*
%TD*%
D14*
%TO.P,C1,1*%
%TO.N,VCC-5V*%
X116780000Y-29060000D03*
%TO.P,C1,2*%
%TO.N,GND*%
X116780000Y-31560000D03*
%TD*%
%TO.P,C2,1*%
%TO.N,Net-(C2-Pad1)*%
X109660000Y-49340000D03*
%TO.P,C2,2*%
%TO.N,Net-(C2-Pad2)*%
X107160000Y-49340000D03*
%TD*%
D15*
%TO.P,U1,1,1*%
%TO.N,VCC-5V*%
X112190000Y-34110000D03*
%TO.P,U1,2,2*%
%TO.N,Net-(C2-Pad1)*%
X112190000Y-36650000D03*
%TO.P,U1,3,3*%
%TO.N,GND*%
X112190000Y-39190000D03*
%TO.P,U1,4,4*%
%TO.N,unconnected-(U1-Pad4)*%
X112190000Y-41730000D03*
%TO.P,U1,5,5*%
%TO.N,SIG*%
X104570000Y-41730000D03*
%TO.P,U1,6*%
%TO.N,N/C*%
X104570000Y-39190000D03*
%TO.P,U1,7*%
X104570000Y-36650000D03*
%TO.P,U1,8,8*%
%TO.N,GND*%
X104570000Y-34110000D03*
%TD*%
D16*
%TO.N,VCC-5V*%
X112190000Y-34110000D02*
X112190000Y-29090000D01*
X112170000Y-29060000D02*
X112165000Y-29065000D01*
X116780000Y-29060000D02*
X112170000Y-29060000D01*
X112165000Y-29065000D02*
X110930000Y-29065000D01*
X112190000Y-29090000D02*
X112165000Y-29065000D01*
%TO.N,SIG*%
X100020000Y-41730000D02*
X100000000Y-41710000D01*
X104570000Y-41730000D02*
X100020000Y-41730000D01*
X100000000Y-30050000D02*
X100985000Y-29065000D01*
X100985000Y-29065000D02*
X105850000Y-29065000D01*
X100000000Y-41710000D02*
X100000000Y-30050000D01*
%TO.N,Net-(C2-Pad1)*%
X115980000Y-37690000D02*
X115980000Y-46360000D01*
X112190000Y-36650000D02*
X114940000Y-36650000D01*
X111500000Y-49350000D02*
X111490000Y-49340000D01*
X112760000Y-47380000D02*
X112760000Y-48090000D01*
X110890000Y-44730000D02*
X112760000Y-46600000D01*
X114940000Y-36650000D02*
X115980000Y-37690000D01*
X115980000Y-46360000D02*
X114960000Y-47380000D01*
X114960000Y-47380000D02*
X112760000Y-47380000D01*
X112760000Y-48090000D02*
X111500000Y-49350000D01*
X111490000Y-49340000D02*
X109660000Y-49340000D01*
X112760000Y-46600000D02*
X112760000Y-47380000D01*
%TO.N,Net-(C2-Pad2)*%
X103290000Y-46790000D02*
X103300000Y-46800000D01*
X103300000Y-46800000D02*
X103740000Y-46800000D01*
X107160000Y-49340000D02*
X105600000Y-49340000D01*
X103740000Y-46800000D02*
X105810000Y-44730000D01*
X103740000Y-47480000D02*
X103740000Y-46800000D01*
X100000000Y-46790000D02*
X103290000Y-46790000D01*
X105600000Y-49340000D02*
X103740000Y-47480000D01*
%TD*%
M02*
