%TF.GenerationSoftware,KiCad,Pcbnew,(6.0.5-0)*%
%TF.CreationDate,2025-01-13T14:58:44-05:00*%
%TF.ProjectId,PowerMeter,506f7765-724d-4657-9465-722e6b696361,rev?*%
%TF.SameCoordinates,Original*%
%TF.FileFunction,Legend,Top*%
%TF.FilePolarity,Positive*%
%FSLAX46Y46*%
G04 Gerber Fmt 4.6, Leading zero omitted, Abs format (unit mm)*
G04 Created by KiCad (PMU (6.0.5-0)) date 2025-01-13 14:58:44*
%MOMM*%
%LPD*%
G01*
G04 APERTURE LIST*
%ADD10C,0.150000*%
%ADD11C,0.300000*%
%ADD12C,0.250000*%
%ADD13C,0.120000*%
%ADD14C,0.127000*%
%ADD15C,0.200000*%
G04 APERTURE END LIST*
D10*
X108126666Y-30932380D02*
X108126666Y-31646666D01*
X108079047Y-31789523D01*
X107983809Y-31884761D01*
X107840952Y-31932380D01*
X107745714Y-31932380D01*
X109126666Y-31932380D02*
X108555238Y-31932380D01*
X108840952Y-31932380D02*
X108840952Y-30932380D01*
X108745714Y-31075238D01*
X108650476Y-31170476D01*
X108555238Y-31218095D01*
D11*
X110698571Y-25140000D02*
X112198571Y-24640000D01*
X110698571Y-24140000D01*
X112055714Y-22782857D02*
X112127142Y-22854285D01*
X112198571Y-23068571D01*
X112198571Y-23211428D01*
X112127142Y-23425714D01*
X111984285Y-23568571D01*
X111841428Y-23640000D01*
X111555714Y-23711428D01*
X111341428Y-23711428D01*
X111055714Y-23640000D01*
X110912857Y-23568571D01*
X110770000Y-23425714D01*
X110698571Y-23211428D01*
X110698571Y-23068571D01*
X110770000Y-22854285D01*
X110841428Y-22782857D01*
X112055714Y-21282857D02*
X112127142Y-21354285D01*
X112198571Y-21568571D01*
X112198571Y-21711428D01*
X112127142Y-21925714D01*
X111984285Y-22068571D01*
X111841428Y-22140000D01*
X111555714Y-22211428D01*
X111341428Y-22211428D01*
X111055714Y-22140000D01*
X110912857Y-22068571D01*
X110770000Y-21925714D01*
X110698571Y-21711428D01*
X110698571Y-21568571D01*
X110770000Y-21354285D01*
X110841428Y-21282857D01*
D12*
X98865238Y-52692380D02*
X99055714Y-52692380D01*
X99150952Y-52740000D01*
X99246190Y-52835238D01*
X99293809Y-53025714D01*
X99293809Y-53359047D01*
X99246190Y-53549523D01*
X99150952Y-53644761D01*
X99055714Y-53692380D01*
X98865238Y-53692380D01*
X98770000Y-53644761D01*
X98674761Y-53549523D01*
X98627142Y-53359047D01*
X98627142Y-53025714D01*
X98674761Y-52835238D01*
X98770000Y-52740000D01*
X98865238Y-52692380D01*
X99722380Y-53025714D02*
X99722380Y-54025714D01*
X99722380Y-53073333D02*
X99817619Y-53025714D01*
X100008095Y-53025714D01*
X100103333Y-53073333D01*
X100150952Y-53120952D01*
X100198571Y-53216190D01*
X100198571Y-53501904D01*
X100150952Y-53597142D01*
X100103333Y-53644761D01*
X100008095Y-53692380D01*
X99817619Y-53692380D01*
X99722380Y-53644761D01*
X100484285Y-53025714D02*
X100865238Y-53025714D01*
X100627142Y-52692380D02*
X100627142Y-53549523D01*
X100674761Y-53644761D01*
X100770000Y-53692380D01*
X100865238Y-53692380D01*
X101198571Y-53692380D02*
X101198571Y-53025714D01*
X101198571Y-52692380D02*
X101150952Y-52740000D01*
X101198571Y-52787619D01*
X101246190Y-52740000D01*
X101198571Y-52692380D01*
X101198571Y-52787619D01*
X102103333Y-53644761D02*
X102008095Y-53692380D01*
X101817619Y-53692380D01*
X101722380Y-53644761D01*
X101674761Y-53597142D01*
X101627142Y-53501904D01*
X101627142Y-53216190D01*
X101674761Y-53120952D01*
X101722380Y-53073333D01*
X101817619Y-53025714D01*
X102008095Y-53025714D01*
X102103333Y-53073333D01*
X102960476Y-53692380D02*
X102960476Y-53168571D01*
X102912857Y-53073333D01*
X102817619Y-53025714D01*
X102627142Y-53025714D01*
X102531904Y-53073333D01*
X102960476Y-53644761D02*
X102865238Y-53692380D01*
X102627142Y-53692380D01*
X102531904Y-53644761D01*
X102484285Y-53549523D01*
X102484285Y-53454285D01*
X102531904Y-53359047D01*
X102627142Y-53311428D01*
X102865238Y-53311428D01*
X102960476Y-53263809D01*
X103579523Y-53692380D02*
X103484285Y-53644761D01*
X103436666Y-53549523D01*
X103436666Y-52692380D01*
X104722380Y-53692380D02*
X104722380Y-52692380D01*
X105103333Y-52692380D01*
X105198571Y-52740000D01*
X105246190Y-52787619D01*
X105293809Y-52882857D01*
X105293809Y-53025714D01*
X105246190Y-53120952D01*
X105198571Y-53168571D01*
X105103333Y-53216190D01*
X104722380Y-53216190D01*
X105865238Y-53692380D02*
X105770000Y-53644761D01*
X105722380Y-53597142D01*
X105674761Y-53501904D01*
X105674761Y-53216190D01*
X105722380Y-53120952D01*
X105770000Y-53073333D01*
X105865238Y-53025714D01*
X106008095Y-53025714D01*
X106103333Y-53073333D01*
X106150952Y-53120952D01*
X106198571Y-53216190D01*
X106198571Y-53501904D01*
X106150952Y-53597142D01*
X106103333Y-53644761D01*
X106008095Y-53692380D01*
X105865238Y-53692380D01*
X106531904Y-53025714D02*
X106722380Y-53692380D01*
X106912857Y-53216190D01*
X107103333Y-53692380D01*
X107293809Y-53025714D01*
X108055714Y-53644761D02*
X107960476Y-53692380D01*
X107770000Y-53692380D01*
X107674761Y-53644761D01*
X107627142Y-53549523D01*
X107627142Y-53168571D01*
X107674761Y-53073333D01*
X107770000Y-53025714D01*
X107960476Y-53025714D01*
X108055714Y-53073333D01*
X108103333Y-53168571D01*
X108103333Y-53263809D01*
X107627142Y-53359047D01*
X108531904Y-53692380D02*
X108531904Y-53025714D01*
X108531904Y-53216190D02*
X108579523Y-53120952D01*
X108627142Y-53073333D01*
X108722380Y-53025714D01*
X108817619Y-53025714D01*
X109912857Y-53692380D02*
X109912857Y-52692380D01*
X110246190Y-53406666D01*
X110579523Y-52692380D01*
X110579523Y-53692380D01*
X111198571Y-53692380D02*
X111103333Y-53644761D01*
X111055714Y-53597142D01*
X111008095Y-53501904D01*
X111008095Y-53216190D01*
X111055714Y-53120952D01*
X111103333Y-53073333D01*
X111198571Y-53025714D01*
X111341428Y-53025714D01*
X111436666Y-53073333D01*
X111484285Y-53120952D01*
X111531904Y-53216190D01*
X111531904Y-53501904D01*
X111484285Y-53597142D01*
X111436666Y-53644761D01*
X111341428Y-53692380D01*
X111198571Y-53692380D01*
X111960476Y-53025714D02*
X111960476Y-53692380D01*
X111960476Y-53120952D02*
X112008095Y-53073333D01*
X112103333Y-53025714D01*
X112246190Y-53025714D01*
X112341428Y-53073333D01*
X112389047Y-53168571D01*
X112389047Y-53692380D01*
X112865238Y-53692380D02*
X112865238Y-53025714D01*
X112865238Y-52692380D02*
X112817619Y-52740000D01*
X112865238Y-52787619D01*
X112912857Y-52740000D01*
X112865238Y-52692380D01*
X112865238Y-52787619D01*
X113198571Y-53025714D02*
X113579523Y-53025714D01*
X113341428Y-52692380D02*
X113341428Y-53549523D01*
X113389047Y-53644761D01*
X113484285Y-53692380D01*
X113579523Y-53692380D01*
X114055714Y-53692380D02*
X113960476Y-53644761D01*
X113912857Y-53597142D01*
X113865238Y-53501904D01*
X113865238Y-53216190D01*
X113912857Y-53120952D01*
X113960476Y-53073333D01*
X114055714Y-53025714D01*
X114198571Y-53025714D01*
X114293809Y-53073333D01*
X114341428Y-53120952D01*
X114389047Y-53216190D01*
X114389047Y-53501904D01*
X114341428Y-53597142D01*
X114293809Y-53644761D01*
X114198571Y-53692380D01*
X114055714Y-53692380D01*
X114817619Y-53692380D02*
X114817619Y-53025714D01*
X114817619Y-53216190D02*
X114865238Y-53120952D01*
X114912857Y-53073333D01*
X115008095Y-53025714D01*
X115103333Y-53025714D01*
X116103333Y-53025714D02*
X116341428Y-53692380D01*
X116579523Y-53025714D01*
X117484285Y-53692380D02*
X116912857Y-53692380D01*
X117198571Y-53692380D02*
X117198571Y-52692380D01*
X117103333Y-52835238D01*
X117008095Y-52930476D01*
X116912857Y-52978095D01*
X117912857Y-53597142D02*
X117960476Y-53644761D01*
X117912857Y-53692380D01*
X117865238Y-53644761D01*
X117912857Y-53597142D01*
X117912857Y-53692380D01*
X118912857Y-53692380D02*
X118341428Y-53692380D01*
X118627142Y-53692380D02*
X118627142Y-52692380D01*
X118531904Y-52835238D01*
X118436666Y-52930476D01*
X118341428Y-52978095D01*
X102531904Y-54302380D02*
X103103333Y-54302380D01*
X102817619Y-55302380D02*
X102817619Y-54302380D01*
X103865238Y-55302380D02*
X103865238Y-54778571D01*
X103817619Y-54683333D01*
X103722380Y-54635714D01*
X103531904Y-54635714D01*
X103436666Y-54683333D01*
X103865238Y-55254761D02*
X103770000Y-55302380D01*
X103531904Y-55302380D01*
X103436666Y-55254761D01*
X103389047Y-55159523D01*
X103389047Y-55064285D01*
X103436666Y-54969047D01*
X103531904Y-54921428D01*
X103770000Y-54921428D01*
X103865238Y-54873809D01*
X104246190Y-54635714D02*
X104484285Y-55302380D01*
X104722380Y-54635714D02*
X104484285Y-55302380D01*
X104389047Y-55540476D01*
X104341428Y-55588095D01*
X104246190Y-55635714D01*
X105246190Y-55302380D02*
X105150952Y-55254761D01*
X105103333Y-55159523D01*
X105103333Y-54302380D01*
X105770000Y-55302380D02*
X105674761Y-55254761D01*
X105627142Y-55207142D01*
X105579523Y-55111904D01*
X105579523Y-54826190D01*
X105627142Y-54730952D01*
X105674761Y-54683333D01*
X105770000Y-54635714D01*
X105912857Y-54635714D01*
X106008095Y-54683333D01*
X106055714Y-54730952D01*
X106103333Y-54826190D01*
X106103333Y-55111904D01*
X106055714Y-55207142D01*
X106008095Y-55254761D01*
X105912857Y-55302380D01*
X105770000Y-55302380D01*
X106531904Y-55302380D02*
X106531904Y-54635714D01*
X106531904Y-54826190D02*
X106579523Y-54730952D01*
X106627142Y-54683333D01*
X106722380Y-54635714D01*
X106817619Y-54635714D01*
X108389047Y-55302380D02*
X107912857Y-55302380D01*
X107912857Y-54302380D01*
X108722380Y-55207142D02*
X108770000Y-55254761D01*
X108722380Y-55302380D01*
X108674761Y-55254761D01*
X108722380Y-55207142D01*
X108722380Y-55302380D01*
X110293809Y-54778571D02*
X110436666Y-54826190D01*
X110484285Y-54873809D01*
X110531904Y-54969047D01*
X110531904Y-55111904D01*
X110484285Y-55207142D01*
X110436666Y-55254761D01*
X110341428Y-55302380D01*
X109960476Y-55302380D01*
X109960476Y-54302380D01*
X110293809Y-54302380D01*
X110389047Y-54350000D01*
X110436666Y-54397619D01*
X110484285Y-54492857D01*
X110484285Y-54588095D01*
X110436666Y-54683333D01*
X110389047Y-54730952D01*
X110293809Y-54778571D01*
X109960476Y-54778571D01*
X111103333Y-55302380D02*
X111008095Y-55254761D01*
X110960476Y-55207142D01*
X110912857Y-55111904D01*
X110912857Y-54826190D01*
X110960476Y-54730952D01*
X111008095Y-54683333D01*
X111103333Y-54635714D01*
X111246190Y-54635714D01*
X111341428Y-54683333D01*
X111389047Y-54730952D01*
X111436666Y-54826190D01*
X111436666Y-55111904D01*
X111389047Y-55207142D01*
X111341428Y-55254761D01*
X111246190Y-55302380D01*
X111103333Y-55302380D01*
X111865238Y-55302380D02*
X111865238Y-54302380D01*
X111865238Y-54683333D02*
X111960476Y-54635714D01*
X112150952Y-54635714D01*
X112246190Y-54683333D01*
X112293809Y-54730952D01*
X112341428Y-54826190D01*
X112341428Y-55111904D01*
X112293809Y-55207142D01*
X112246190Y-55254761D01*
X112150952Y-55302380D01*
X111960476Y-55302380D01*
X111865238Y-55254761D01*
X112770000Y-55302380D02*
X112770000Y-54635714D01*
X112770000Y-54826190D02*
X112817619Y-54730952D01*
X112865238Y-54683333D01*
X112960476Y-54635714D01*
X113055714Y-54635714D01*
X113531904Y-55302380D02*
X113436666Y-55254761D01*
X113389047Y-55207142D01*
X113341428Y-55111904D01*
X113341428Y-54826190D01*
X113389047Y-54730952D01*
X113436666Y-54683333D01*
X113531904Y-54635714D01*
X113674761Y-54635714D01*
X113770000Y-54683333D01*
X113817619Y-54730952D01*
X113865238Y-54826190D01*
X113865238Y-55111904D01*
X113817619Y-55207142D01*
X113770000Y-55254761D01*
X113674761Y-55302380D01*
X113531904Y-55302380D01*
X114198571Y-54635714D02*
X114389047Y-55302380D01*
X114579523Y-54826190D01*
X114770000Y-55302380D01*
X114960476Y-54635714D01*
X104912857Y-55912380D02*
X105008095Y-55912380D01*
X105103333Y-55960000D01*
X105150952Y-56007619D01*
X105198571Y-56102857D01*
X105246190Y-56293333D01*
X105246190Y-56531428D01*
X105198571Y-56721904D01*
X105150952Y-56817142D01*
X105103333Y-56864761D01*
X105008095Y-56912380D01*
X104912857Y-56912380D01*
X104817619Y-56864761D01*
X104770000Y-56817142D01*
X104722380Y-56721904D01*
X104674761Y-56531428D01*
X104674761Y-56293333D01*
X104722380Y-56102857D01*
X104770000Y-56007619D01*
X104817619Y-55960000D01*
X104912857Y-55912380D01*
X105722380Y-56912380D02*
X105912857Y-56912380D01*
X106008095Y-56864761D01*
X106055714Y-56817142D01*
X106150952Y-56674285D01*
X106198571Y-56483809D01*
X106198571Y-56102857D01*
X106150952Y-56007619D01*
X106103333Y-55960000D01*
X106008095Y-55912380D01*
X105817619Y-55912380D01*
X105722380Y-55960000D01*
X105674761Y-56007619D01*
X105627142Y-56102857D01*
X105627142Y-56340952D01*
X105674761Y-56436190D01*
X105722380Y-56483809D01*
X105817619Y-56531428D01*
X106008095Y-56531428D01*
X106103333Y-56483809D01*
X106150952Y-56436190D01*
X106198571Y-56340952D01*
X106627142Y-56817142D02*
X106674761Y-56864761D01*
X106627142Y-56912380D01*
X106579523Y-56864761D01*
X106627142Y-56817142D01*
X106627142Y-56912380D01*
X107293809Y-55912380D02*
X107389047Y-55912380D01*
X107484285Y-55960000D01*
X107531904Y-56007619D01*
X107579523Y-56102857D01*
X107627142Y-56293333D01*
X107627142Y-56531428D01*
X107579523Y-56721904D01*
X107531904Y-56817142D01*
X107484285Y-56864761D01*
X107389047Y-56912380D01*
X107293809Y-56912380D01*
X107198571Y-56864761D01*
X107150952Y-56817142D01*
X107103333Y-56721904D01*
X107055714Y-56531428D01*
X107055714Y-56293333D01*
X107103333Y-56102857D01*
X107150952Y-56007619D01*
X107198571Y-55960000D01*
X107293809Y-55912380D01*
X108484285Y-55912380D02*
X108293809Y-55912380D01*
X108198571Y-55960000D01*
X108150952Y-56007619D01*
X108055714Y-56150476D01*
X108008095Y-56340952D01*
X108008095Y-56721904D01*
X108055714Y-56817142D01*
X108103333Y-56864761D01*
X108198571Y-56912380D01*
X108389047Y-56912380D01*
X108484285Y-56864761D01*
X108531904Y-56817142D01*
X108579523Y-56721904D01*
X108579523Y-56483809D01*
X108531904Y-56388571D01*
X108484285Y-56340952D01*
X108389047Y-56293333D01*
X108198571Y-56293333D01*
X108103333Y-56340952D01*
X108055714Y-56388571D01*
X108008095Y-56483809D01*
X109008095Y-56817142D02*
X109055714Y-56864761D01*
X109008095Y-56912380D01*
X108960476Y-56864761D01*
X109008095Y-56817142D01*
X109008095Y-56912380D01*
X109436666Y-56007619D02*
X109484285Y-55960000D01*
X109579523Y-55912380D01*
X109817619Y-55912380D01*
X109912857Y-55960000D01*
X109960476Y-56007619D01*
X110008095Y-56102857D01*
X110008095Y-56198095D01*
X109960476Y-56340952D01*
X109389047Y-56912380D01*
X110008095Y-56912380D01*
X110627142Y-55912380D02*
X110722380Y-55912380D01*
X110817619Y-55960000D01*
X110865238Y-56007619D01*
X110912857Y-56102857D01*
X110960476Y-56293333D01*
X110960476Y-56531428D01*
X110912857Y-56721904D01*
X110865238Y-56817142D01*
X110817619Y-56864761D01*
X110722380Y-56912380D01*
X110627142Y-56912380D01*
X110531904Y-56864761D01*
X110484285Y-56817142D01*
X110436666Y-56721904D01*
X110389047Y-56531428D01*
X110389047Y-56293333D01*
X110436666Y-56102857D01*
X110484285Y-56007619D01*
X110531904Y-55960000D01*
X110627142Y-55912380D01*
X111341428Y-56007619D02*
X111389047Y-55960000D01*
X111484285Y-55912380D01*
X111722380Y-55912380D01*
X111817619Y-55960000D01*
X111865238Y-56007619D01*
X111912857Y-56102857D01*
X111912857Y-56198095D01*
X111865238Y-56340952D01*
X111293809Y-56912380D01*
X111912857Y-56912380D01*
X112246190Y-55912380D02*
X112865238Y-55912380D01*
X112531904Y-56293333D01*
X112674761Y-56293333D01*
X112770000Y-56340952D01*
X112817619Y-56388571D01*
X112865238Y-56483809D01*
X112865238Y-56721904D01*
X112817619Y-56817142D01*
X112770000Y-56864761D01*
X112674761Y-56912380D01*
X112389047Y-56912380D01*
X112293809Y-56864761D01*
X112246190Y-56817142D01*
D11*
X107720000Y-24352857D02*
X107648571Y-24495714D01*
X107648571Y-24710000D01*
X107720000Y-24924285D01*
X107862857Y-25067142D01*
X108005714Y-25138571D01*
X108291428Y-25210000D01*
X108505714Y-25210000D01*
X108791428Y-25138571D01*
X108934285Y-25067142D01*
X109077142Y-24924285D01*
X109148571Y-24710000D01*
X109148571Y-24567142D01*
X109077142Y-24352857D01*
X109005714Y-24281428D01*
X108505714Y-24281428D01*
X108505714Y-24567142D01*
X109148571Y-23638571D02*
X107648571Y-23638571D01*
X109148571Y-22781428D01*
X107648571Y-22781428D01*
X109148571Y-22067142D02*
X107648571Y-22067142D01*
X107648571Y-21710000D01*
X107720000Y-21495714D01*
X107862857Y-21352857D01*
X108005714Y-21281428D01*
X108291428Y-21210000D01*
X108505714Y-21210000D01*
X108791428Y-21281428D01*
X108934285Y-21352857D01*
X109077142Y-21495714D01*
X109148571Y-21710000D01*
X109148571Y-22067142D01*
X105937142Y-25095714D02*
X106008571Y-24881428D01*
X106008571Y-24524285D01*
X105937142Y-24381428D01*
X105865714Y-24310000D01*
X105722857Y-24238571D01*
X105580000Y-24238571D01*
X105437142Y-24310000D01*
X105365714Y-24381428D01*
X105294285Y-24524285D01*
X105222857Y-24810000D01*
X105151428Y-24952857D01*
X105080000Y-25024285D01*
X104937142Y-25095714D01*
X104794285Y-25095714D01*
X104651428Y-25024285D01*
X104580000Y-24952857D01*
X104508571Y-24810000D01*
X104508571Y-24452857D01*
X104580000Y-24238571D01*
X106008571Y-23595714D02*
X104508571Y-23595714D01*
X104580000Y-22095714D02*
X104508571Y-22238571D01*
X104508571Y-22452857D01*
X104580000Y-22667142D01*
X104722857Y-22810000D01*
X104865714Y-22881428D01*
X105151428Y-22952857D01*
X105365714Y-22952857D01*
X105651428Y-22881428D01*
X105794285Y-22810000D01*
X105937142Y-22667142D01*
X106008571Y-22452857D01*
X106008571Y-22310000D01*
X105937142Y-22095714D01*
X105865714Y-22024285D01*
X105365714Y-22024285D01*
X105365714Y-22310000D01*
D10*
%TO.C,R2*%
X99833333Y-40502380D02*
X99500000Y-40026190D01*
X99261904Y-40502380D02*
X99261904Y-39502380D01*
X99642857Y-39502380D01*
X99738095Y-39550000D01*
X99785714Y-39597619D01*
X99833333Y-39692857D01*
X99833333Y-39835714D01*
X99785714Y-39930952D01*
X99738095Y-39978571D01*
X99642857Y-40026190D01*
X99261904Y-40026190D01*
X100214285Y-39597619D02*
X100261904Y-39550000D01*
X100357142Y-39502380D01*
X100595238Y-39502380D01*
X100690476Y-39550000D01*
X100738095Y-39597619D01*
X100785714Y-39692857D01*
X100785714Y-39788095D01*
X100738095Y-39930952D01*
X100166666Y-40502380D01*
X100785714Y-40502380D01*
%TO.C,R1*%
X108183333Y-43362380D02*
X107850000Y-42886190D01*
X107611904Y-43362380D02*
X107611904Y-42362380D01*
X107992857Y-42362380D01*
X108088095Y-42410000D01*
X108135714Y-42457619D01*
X108183333Y-42552857D01*
X108183333Y-42695714D01*
X108135714Y-42790952D01*
X108088095Y-42838571D01*
X107992857Y-42886190D01*
X107611904Y-42886190D01*
X109135714Y-43362380D02*
X108564285Y-43362380D01*
X108850000Y-43362380D02*
X108850000Y-42362380D01*
X108754761Y-42505238D01*
X108659523Y-42600476D01*
X108564285Y-42648095D01*
%TO.C,C1*%
X116593333Y-27627142D02*
X116545714Y-27674761D01*
X116402857Y-27722380D01*
X116307619Y-27722380D01*
X116164761Y-27674761D01*
X116069523Y-27579523D01*
X116021904Y-27484285D01*
X115974285Y-27293809D01*
X115974285Y-27150952D01*
X116021904Y-26960476D01*
X116069523Y-26865238D01*
X116164761Y-26770000D01*
X116307619Y-26722380D01*
X116402857Y-26722380D01*
X116545714Y-26770000D01*
X116593333Y-26817619D01*
X117545714Y-27722380D02*
X116974285Y-27722380D01*
X117260000Y-27722380D02*
X117260000Y-26722380D01*
X117164761Y-26865238D01*
X117069523Y-26960476D01*
X116974285Y-27008095D01*
%TO.C,C2*%
X108183333Y-47427142D02*
X108135714Y-47474761D01*
X107992857Y-47522380D01*
X107897619Y-47522380D01*
X107754761Y-47474761D01*
X107659523Y-47379523D01*
X107611904Y-47284285D01*
X107564285Y-47093809D01*
X107564285Y-46950952D01*
X107611904Y-46760476D01*
X107659523Y-46665238D01*
X107754761Y-46570000D01*
X107897619Y-46522380D01*
X107992857Y-46522380D01*
X108135714Y-46570000D01*
X108183333Y-46617619D01*
X108564285Y-46617619D02*
X108611904Y-46570000D01*
X108707142Y-46522380D01*
X108945238Y-46522380D01*
X109040476Y-46570000D01*
X109088095Y-46617619D01*
X109135714Y-46712857D01*
X109135714Y-46808095D01*
X109088095Y-46950952D01*
X108516666Y-47522380D01*
X109135714Y-47522380D01*
D13*
%TO.C,R2*%
X99080000Y-46170000D02*
X99080000Y-42330000D01*
X100920000Y-46170000D02*
X100920000Y-42330000D01*
%TO.C,R1*%
X110270000Y-45650000D02*
X106430000Y-45650000D01*
X110270000Y-43810000D02*
X106430000Y-43810000D01*
D14*
%TO.C,J1*%
X112125000Y-25815000D02*
X112125000Y-32165000D01*
X104655000Y-25815000D02*
X112125000Y-25815000D01*
X112125000Y-32165000D02*
X104655000Y-32165000D01*
X104655000Y-32165000D02*
X104655000Y-25815000D01*
D15*
X104005000Y-28915000D02*
G75*
G03*
X104005000Y-28915000I-100000J0D01*
G01*
D13*
%TO.C,C1*%
X115360000Y-28290000D02*
X115360000Y-32330000D01*
X115985000Y-28290000D02*
X115360000Y-28290000D01*
X118200000Y-28290000D02*
X117575000Y-28290000D01*
X118200000Y-28290000D02*
X118200000Y-32330000D01*
X118200000Y-32330000D02*
X117575000Y-32330000D01*
X115985000Y-32330000D02*
X115360000Y-32330000D01*
%TO.C,C2*%
X106390000Y-48545000D02*
X106390000Y-47920000D01*
X110430000Y-50760000D02*
X110430000Y-50135000D01*
X110430000Y-48545000D02*
X110430000Y-47920000D01*
X110430000Y-50760000D02*
X106390000Y-50760000D01*
X106390000Y-50760000D02*
X106390000Y-50135000D01*
X110430000Y-47920000D02*
X106390000Y-47920000D01*
%TD*%
M02*
