M48
; DRILL file {KiCad (6.0.5-0)} date 
; FORMAT={-:-/ absolute / inch / decimal}
; #@! TF.CreationDate,2025-01-13T15:18:32-05:00
; #@! TF.GenerationSoftware,Kicad,LMC,(6.0.5-0)
; #@! TF.FileFunction,Plated,1,2,PTH
FMAT,2
INCH
; #@! TA.AperFunction,Plated,PTH,ComponentDrill
T1C0.0276
; #@! TA.AperFunction,Plated,PTH,ComponentDrill
T2C0.0307
; #@! TA.AperFunction,Plated,PTH,ComponentDrill
T3C0.0315
; #@! TA.AperFunction,Plated,PTH,ComponentDrill
T4C0.0350
; #@! TA.AperFunction,Plated,PTH,ComponentDrill
T5C0.0400
; #@! TA.AperFunction,Plated,PTH,ComponentDrill
T6C0.0402
; #@! TA.AperFunction,Plated,PTH,ComponentDrill
T7C0.0440
; #@! TA.AperFunction,Plated,PTH,ComponentDrill
T8C0.0510
; #@! TA.AperFunction,Plated,PTH,ComponentDrill
T9C0.0665
; #@! TA.AperFunction,Plated,PTH,ComponentDrill
T10C0.0902
%
G90
G05
T1
X7.7059Y-1.9934
X7.7094Y-2.2399
X7.9059Y-1.9934
X7.9094Y-2.2399
T2
X8.2697Y-2.1677
X8.2697Y-2.4803
X8.3697Y-2.1677
X8.3697Y-2.4803
X8.4697Y-2.1677
X8.4697Y-2.4803
X8.5697Y-2.1677
X8.5697Y-2.4803
T3
X7.8114Y-2.4236
X7.9098Y-2.4236
X8.0787Y-1.895
X8.0787Y-1.9934
X8.2622Y-1.9934
X8.3606Y-1.9934
T4
X7.3354Y-1.8886
X7.3354Y-2.1524
X7.4335Y-1.8886
X7.4335Y-2.1524
T5
X8.5087Y-4.0283
X8.6087Y-4.0283
X8.7087Y-4.0283
X8.8087Y-4.0283
X8.9087Y-4.0283
T6
X7.2319Y-2.7128
X7.2319Y-2.8128
X7.2319Y-2.9128
X7.2319Y-3.0128
X7.2319Y-3.1128
X7.2319Y-3.2128
X7.2319Y-3.3128
X7.3319Y-2.7128
X7.3319Y-3.3128
X7.4319Y-2.7128
X7.4319Y-3.3128
X7.5319Y-2.7128
X7.5319Y-3.3128
X7.6319Y-2.7128
X7.6319Y-3.3128
X7.7319Y-2.7128
X7.7319Y-3.3128
X7.8319Y-2.7128
X7.8319Y-3.3128
X7.9319Y-2.7128
X7.9319Y-3.3128
X8.0319Y-2.7128
X8.0319Y-3.3128
X8.1319Y-2.7128
X8.1319Y-3.3128
X8.2319Y-2.7128
X8.2319Y-3.3128
X8.3319Y-2.7128
X8.3319Y-3.3128
X8.4319Y-2.7128
X8.4319Y-3.3128
X8.5319Y-2.7128
X8.5319Y-3.3128
T7
X9.139Y-1.974
X9.139Y-2.074
X9.139Y-2.174
X9.139Y-2.274
X9.139Y-2.374
X9.139Y-2.474
X9.139Y-2.574
X9.139Y-2.674
X9.139Y-2.774
X9.139Y-2.874
X9.1394Y-3.0598
X9.1394Y-3.1598
X9.1394Y-3.2598
X9.1394Y-3.3598
X9.1394Y-3.4598
X9.1394Y-3.5598
X9.1394Y-3.6598
X9.1394Y-3.7598
X9.1394Y-3.8598
X9.1394Y-3.9598
X9.439Y-1.974
X9.439Y-2.074
X9.439Y-2.174
X9.439Y-2.274
X9.439Y-2.374
X9.439Y-2.474
X9.439Y-2.574
X9.439Y-2.674
X9.439Y-2.774
X9.439Y-2.874
X9.4394Y-3.0598
X9.4394Y-3.1598
X9.4394Y-3.2598
X9.4394Y-3.3598
X9.4394Y-3.4598
X9.4394Y-3.5598
X9.4394Y-3.6598
X9.4394Y-3.7598
X9.4394Y-3.8598
X9.4394Y-3.9598
T8
X8.7449Y-1.8841
X8.8449Y-1.8841
T9
X9.8583Y-2.0413
X9.8583Y-2.1791
X9.8583Y-2.3169
X9.8583Y-2.4547
X9.8583Y-2.5925
X9.8583Y-2.7303
X9.8583Y-2.8681
X9.8583Y-3.0059
X9.8583Y-3.1437
X9.8583Y-3.2815
X9.8583Y-3.4193
X9.8583Y-3.5571
X9.8583Y-3.6949
X9.8583Y-3.8327
X9.8583Y-3.9705
X10.1339Y-2.0413
X10.1339Y-2.1791
X10.1339Y-2.3169
X10.1339Y-2.4547
X10.1339Y-2.5925
X10.1339Y-2.7303
X10.1339Y-2.8681
X10.1339Y-3.0059
X10.1339Y-3.1437
X10.1339Y-3.2815
X10.1339Y-3.4193
X10.1339Y-3.5571
X10.1339Y-3.6949
X10.1339Y-3.8327
X10.1339Y-3.9705
T10
X7.1854Y-2.0205
X7.2173Y-1.7543
X7.2173Y-2.2866
T0
M30
