%TF.GenerationSoftware,KiCad,Pcbnew,(6.0.5-0)*%
%TF.CreationDate,2025-01-13T15:18:28-05:00*%
%TF.ProjectId,LightController,4c696768-7443-46f6-9e74-726f6c6c6572,rev?*%
%TF.SameCoordinates,Original*%
%TF.FileFunction,Soldermask,Top*%
%TF.FilePolarity,Negative*%
%FSLAX46Y46*%
G04 Gerber Fmt 4.6, Leading zero omitted, Abs format (unit mm)*
G04 Created by KiCad (LMC (6.0.5-0)) date 2025-01-13 15:18:28*
%MOMM*%
%LPD*%
G01*
G04 APERTURE LIST*
%ADD10C,1.600000*%
%ADD11R,1.676400X1.676400*%
%ADD12C,1.676400*%
%ADD13C,1.400000*%
%ADD14O,1.400000X1.400000*%
%ADD15C,1.530000*%
%ADD16R,1.130000X1.130000*%
%ADD17C,1.130000*%
%ADD18R,1.398000X1.398000*%
%ADD19C,1.398000*%
%ADD20C,3.306000*%
%ADD21C,1.650000*%
%ADD22C,3.350000*%
%ADD23C,2.535000*%
%ADD24C,1.524000*%
%ADD25C,1.803400*%
G04 APERTURE END LIST*
D10*
%TO.C,C1*%
X205200000Y-50632500D03*
X205200000Y-48132500D03*
%TD*%
D11*
%TO.C,U4*%
X232140000Y-77720000D03*
D12*
X232140000Y-80260000D03*
X232140000Y-82800000D03*
X232140000Y-85340000D03*
X232140000Y-87880000D03*
X232140000Y-90420000D03*
X232140000Y-92960000D03*
X232140000Y-95500000D03*
X232140000Y-98040000D03*
X232140000Y-100580000D03*
X239760000Y-100580000D03*
X239760000Y-98040000D03*
X239760000Y-95500000D03*
X239760000Y-92960000D03*
X239760000Y-90420000D03*
X239760000Y-87880000D03*
X239760000Y-85340000D03*
X239760000Y-82800000D03*
X239760000Y-80260000D03*
X239760000Y-77720000D03*
%TD*%
D13*
%TO.C,R2*%
X195820000Y-56892500D03*
D14*
X200900000Y-56892500D03*
%TD*%
D15*
%TO.C,U2*%
X214170000Y-68905000D03*
X211630000Y-68905000D03*
X209090000Y-68905000D03*
X206550000Y-68905000D03*
X183690000Y-73985000D03*
X211630000Y-84145000D03*
X204010000Y-68905000D03*
X201470000Y-68905000D03*
X198930000Y-68905000D03*
X196390000Y-68905000D03*
X193850000Y-68905000D03*
X191310000Y-68905000D03*
X188770000Y-68905000D03*
X186230000Y-68905000D03*
X183690000Y-68905000D03*
X183690000Y-84145000D03*
X186230000Y-84145000D03*
X188770000Y-84145000D03*
X191310000Y-84145000D03*
X193850000Y-84145000D03*
X196390000Y-84145000D03*
X198930000Y-84145000D03*
X201470000Y-84145000D03*
X204010000Y-84145000D03*
X206550000Y-84145000D03*
X209090000Y-84145000D03*
X216710000Y-68905000D03*
X183690000Y-76525000D03*
X214170000Y-84145000D03*
X183690000Y-81605000D03*
X183690000Y-79065000D03*
X183690000Y-71445000D03*
X216710000Y-84145000D03*
%TD*%
D13*
%TO.C,R1*%
X195730000Y-50632500D03*
D14*
X200810000Y-50632500D03*
%TD*%
D16*
%TO.C,U1*%
X217670000Y-55060000D03*
D17*
X215130000Y-55060000D03*
X212590000Y-55060000D03*
X210050000Y-55060000D03*
X210050000Y-63000000D03*
X212590000Y-63000000D03*
X215130000Y-63000000D03*
X217670000Y-63000000D03*
%TD*%
D11*
%TO.C,U3*%
X232130000Y-50140000D03*
D12*
X232130000Y-52680000D03*
X232130000Y-55220000D03*
X232130000Y-57760000D03*
X232130000Y-60300000D03*
X232130000Y-62840000D03*
X232130000Y-65380000D03*
X232130000Y-67920000D03*
X232130000Y-70460000D03*
X232130000Y-73000000D03*
X239750000Y-73000000D03*
X239750000Y-70460000D03*
X239750000Y-67920000D03*
X239750000Y-65380000D03*
X239750000Y-62840000D03*
X239750000Y-60300000D03*
X239750000Y-57760000D03*
X239750000Y-55220000D03*
X239750000Y-52680000D03*
X239750000Y-50140000D03*
%TD*%
D18*
%TO.C,J2*%
X186320000Y-54670000D03*
D19*
X186320000Y-47970000D03*
X188810000Y-54670000D03*
X188810000Y-47970000D03*
D20*
X182510000Y-51320000D03*
X183320000Y-44560000D03*
X183320000Y-58080000D03*
%TD*%
D21*
%TO.C,J1*%
X250400000Y-48350000D03*
D22*
X253900000Y-47600000D03*
D21*
X250400000Y-104350000D03*
D22*
X253900000Y-105100000D03*
D21*
X257400000Y-48350000D03*
X259400000Y-49350000D03*
X257400000Y-104350000D03*
X248400000Y-47850000D03*
X248400000Y-104850000D03*
X259400000Y-104850000D03*
D23*
X250400000Y-51850000D03*
X250400000Y-55350000D03*
X250400000Y-58850000D03*
X250400000Y-62350000D03*
X250400000Y-65850000D03*
X250400000Y-69350000D03*
X250400000Y-72850000D03*
X250400000Y-76350000D03*
X250400000Y-79850000D03*
X250400000Y-83350000D03*
X250400000Y-86850000D03*
X250400000Y-90350000D03*
X250400000Y-93850000D03*
X250400000Y-97350000D03*
X250400000Y-100850000D03*
X257400000Y-76350000D03*
X257400000Y-72850000D03*
X257400000Y-69350000D03*
X257400000Y-65850000D03*
X257400000Y-51850000D03*
X257400000Y-55350000D03*
X257400000Y-58850000D03*
X257400000Y-62350000D03*
X257400000Y-79850000D03*
X257400000Y-83350000D03*
X257400000Y-86850000D03*
X257400000Y-90350000D03*
X257400000Y-93850000D03*
X257400000Y-97350000D03*
X257400000Y-100850000D03*
%TD*%
D10*
%TO.C,C3*%
X212360000Y-50632500D03*
X209860000Y-50632500D03*
%TD*%
D24*
%TO.C,J3*%
X216120000Y-102320000D03*
X218660000Y-102320000D03*
X221200000Y-102320000D03*
X223740000Y-102320000D03*
X226280000Y-102320000D03*
%TD*%
D10*
%TO.C,C2*%
X200910000Y-61560000D03*
X198410000Y-61560000D03*
%TD*%
D25*
%TO.C,J4*%
X222119924Y-47857201D03*
X224659924Y-47857201D03*
%TD*%
M02*
